<svg xmlns="http://www.w3.org/2000/svg" xmlns:xlink="http://www.w3.org/1999/xlink" width="200" height="120" viewBox="0 0 200 120">
  <defs>
    <clipPath id="clip-path">
      <rect id="Rectangle_1" data-name="Rectangle 1" width="200" height="120"/>
    </clipPath>
    <clipPath id="clip-path-2">
      <path id="Path_2" data-name="Path 2" d="M46.752,11.876A10.876,10.876,0,1,1,35.876,1,10.876,10.876,0,0,1,46.752,11.876Z" transform="translate(18.505 -1)" fill="#c73d6f"/>
    </clipPath>
  </defs>
  <g id="black" clip-path="url(#clip-path)">
    <g id="tasks-solid-badged" transform="translate(8.98 25.437)">
      <path id="Subtraction_1" data-name="Subtraction 1" d="M3897.876-2030.964H3848.72a3.71,3.71,0,0,1-3.7-3.676v-55.73a3.81,3.81,0,0,1,1.349-2.816,3.814,3.814,0,0,1,2.457-.9,3.836,3.836,0,0,1,.544.039h15.05a9.366,9.366,0,0,1,8.888-6.391,9.365,9.365,0,0,1,8.887,6.391h1.087a16.4,16.4,0,0,0-.168,2.284,16.383,16.383,0,0,0,.152,2.175h-4.915v-1.479a5.042,5.042,0,0,0-5.036-5.036,5.042,5.042,0,0,0-5.036,5.036v1.48h-7.483a2.177,2.177,0,0,0-2.175,2.175v3.917h26.729a16.352,16.352,0,0,0,14.051,8.048,16.431,16.431,0,0,0,2.177-.155v40.96A3.71,3.71,0,0,1,3897.876-2030.964Zm-11.836-32.252v23.641a2.5,2.5,0,0,0,2.5,2.5,2.5,2.5,0,0,0,2.5-2.5v-29.039a3.066,3.066,0,0,0-.754-3.114,3.056,3.056,0,0,0-2.175-.9,3.056,3.056,0,0,0-2.175.9L3870.4-2056.2l-7.09-7.091a3.057,3.057,0,0,0-2.175-.9,3.057,3.057,0,0,0-2.175.9,3.055,3.055,0,0,0-.7,1.075,2.985,2.985,0,0,0-.224,1.138v21a3,3,0,0,0,3,3,3,3,0,0,0,3-3v-13.786l6.323,6.322,15.677-15.675Z" transform="translate(-3845.02 2102.638)" fill="#5bc0de"/>
      <g id="Mask_Group_1" data-name="Mask Group 1" clip-path="url(#clip-path-2)">
        <g id="__TEMP__SVG__" transform="translate(41.951 -1.554)">
          <path id="Path_3" data-name="Path 3" d="M2.331,8.254v9.561l9.322,5.491V13.79Z" fill="#c73d6f"/>
          <path id="Path_4" data-name="Path 4" d="M13.207,23.306l9.322-5.491V8.254L13.207,13.79ZM21.752,17.365Z" fill="#c73d6f"/>
          <path id="Path_5" data-name="Path 5" d="M21.752,6.992,12.43,1.554,3.107,6.992,12.43,12.43Z" fill="#c73d6f"/>
        </g>
      </g>
    </g>
    <path id="ission" d="M14.805-6.84V0H2.25V-6.84H4.77V-29.16H2.25V-36H14.805v6.84h-2.52V-6.84ZM38.745,0H19.305V-11.205H26.73V-6.8h4.59v-5.76l-11.79-9V-36H38.52v10.71H31.815v-3.825h-4.86v4.68l11.79,9.045Zm23.94,0H43.245V-11.205H50.67V-6.8h4.59v-5.76l-11.79-9V-36H62.46v10.71H55.755v-3.825H50.9v4.68l11.79,9.045ZM79.74-6.84V0H67.185V-6.84h2.52V-29.16h-2.52V-36H79.74v6.84H77.22V-6.84ZM84.24-36h20.97V0H84.24ZM91.53-6.66h6.39V-29.3H91.53Zm32.445-8.325V-35.19h6.84V0h-7.2l-7.11-20.205V0H109.71V-35.19h7.2Z" transform="translate(65 92)" fill="#5bc0de"/>
    <path id="CUBE" d="M15.869-3.44a7.774,7.774,0,0,1-5.687,2.349A7.774,7.774,0,0,1,4.494-3.44,7.774,7.774,0,0,1,2.146-9.128a7.774,7.774,0,0,1,2.349-5.687,7.746,7.746,0,0,1,5.688-2.349,7.774,7.774,0,0,1,5.688,2.349,7.955,7.955,0,0,1,1.968,3.174h1.384a8.976,8.976,0,0,0-2.412-4.1,8.987,8.987,0,0,0-6.614-2.742,8.945,8.945,0,0,0-6.6,2.742A9.01,9.01,0,0,0,.825-9.128,9.041,9.041,0,0,0,3.567-2.514,9.041,9.041,0,0,0,10.182.229,9.014,9.014,0,0,0,16.8-2.514a9.063,9.063,0,0,0,2.412-4.1H17.837A7.841,7.841,0,0,1,15.869-3.44ZM45.721-9.153a9.781,9.781,0,0,1-2.476,6.589A7.53,7.53,0,0,1,37.418.165a7.529,7.529,0,0,1-5.84-2.742,9.746,9.746,0,0,1-2.463-6.6v-9.064H30.4v9.064A8.291,8.291,0,0,0,32.48-3.593a6.351,6.351,0,0,0,4.926,2.311,6.4,6.4,0,0,0,4.938-2.3,8.279,8.279,0,0,0,2.095-5.561v-9.1h1.282ZM57.38-1.308h5.827a6.4,6.4,0,0,0,2.818-.686,4.7,4.7,0,0,0,2.666-4.57,6.048,6.048,0,0,0-4.062-5.891,2.593,2.593,0,0,0,1.46-2.526,1.64,1.64,0,0,0-1.117-1.612,3.365,3.365,0,0,0-1.308-.254H57.38Zm9.331-11.185a6.349,6.349,0,0,1,3.352,5.929,5.834,5.834,0,0,1-3.4,5.713A7.863,7.863,0,0,1,63.207,0H56.06V-18.218h7.6a4.4,4.4,0,0,1,2.387.66,2.823,2.823,0,0,1,1.422,2.577A3.647,3.647,0,0,1,66.711-12.492ZM81.291-9.725H92.551v1.333H81.291v7.046H92.6V0H79.958V-18.218H92.6v1.358H81.291Z" transform="translate(76 45)" fill="#c63d6f" stroke="#c63d6f" stroke-width="1"/>
  </g>
</svg>
